# xmcd CD database file
#
# Track frame offsets:
#	150
#	11275
#	24925
#	44800
#	56575
#	72300
#	95825
#	112000
#	121600
#	137950
#	161975
#	171762
#	184975
#	196600
#	210925
#	224212
#
# Disc length: 3171 seconds
#
# Revision: 1
# Processed by: cddbd v1.4PL0 Copyright (c) Steve Scherf et al.
# Submitted via: CDex 1.40Beta8
#
DISCID=ed0c6110
DTITLE=Various Artist - Country Trucker Songs
DYEAR=1993
DGENRE=Country
TTITLE0=Willie Nelson/On the road again
TTITLE1=Highwayman/Highwayman
TTITLE2=The O'Kanes/Highway 55
TTITLE3=Johnny Paycheck/ Take this job and shove it
TTITLE4=Merle Haggard and Willie Nelson/Reasons to quit
TTITLE5=David Allen Coe/You never even called me by name
TTITLE6=Merle Haggard and George Jones/C.C. Waterbeck
TTITLE7=Asleep at the wheel/Tulsa straight ahead
TTITLE8=Bobby Bare/Goin' back to Texas
TTITLE9=Johnny Cash/Highwaypatrolman
TTITLE10=George Jones and Willie Nelson/I gotta get drunk
TTITLE11=Russel Smith/Not made of stone
TTITLE12=Moe Bandy and Joe Stampley/Just good ol' boys
TTITLE13=Ricky Skaggs/Highway 40 blues
TTITLE14=Tanya Tucker/Let me be there
TTITLE15=Marty Robbins/I walk alone
EXTD=YEAR: 1993 ID3G: 2
EXTT0=
EXTT1=
EXTT2=
EXTT3=
EXTT4=
EXTT5=
EXTT6=
EXTT7=
EXTT8=
EXTT9=
EXTT10=
EXTT11=
EXTT12=
EXTT13=
EXTT14=
EXTT15=
PLAYORDER=
